<mxfile host="app.diagrams.net" modified="2023-05-10T22:29:23.033Z" agent="5.0 (Windows NT 10.0; Win64; x64) AppleWebKit/537.36 (KHTML, like Gecko) Chrome/113.0.0.0 Safari/537.36" etag="djLPOcWPL4bOVyGg7Mdf" version="20.5.3" type="github">
  <diagram name="Page-1" id="5f0bae14-7c28-e335-631c-24af17079c00">
    <mxGraphModel dx="2324" dy="1914" grid="1" gridSize="10" guides="1" tooltips="1" connect="1" arrows="1" fold="1" page="1" pageScale="1" pageWidth="1100" pageHeight="850" math="0" shadow="0">
      <root>
        <mxCell id="0" />
        <mxCell id="1" parent="0" />
        <mxCell id="tA4RRqH3EDB9mvpufPJx-122" style="edgeStyle=orthogonalEdgeStyle;rounded=0;orthogonalLoop=1;jettySize=auto;html=1;exitX=1;exitY=0.3333333333333333;exitDx=0;exitDy=0;exitPerimeter=0;entryX=0;entryY=0.5;entryDx=0;entryDy=0;" edge="1" parent="1" source="tA4RRqH3EDB9mvpufPJx-5" target="tA4RRqH3EDB9mvpufPJx-79">
          <mxGeometry relative="1" as="geometry">
            <Array as="points">
              <mxPoint x="120" y="230" />
              <mxPoint x="120" y="130" />
            </Array>
          </mxGeometry>
        </mxCell>
        <mxCell id="tA4RRqH3EDB9mvpufPJx-123" style="edgeStyle=orthogonalEdgeStyle;rounded=0;orthogonalLoop=1;jettySize=auto;html=1;exitX=0.5;exitY=0.5;exitDx=0;exitDy=0;exitPerimeter=0;entryX=0;entryY=0.5;entryDx=0;entryDy=0;" edge="1" parent="1" source="tA4RRqH3EDB9mvpufPJx-5" target="tA4RRqH3EDB9mvpufPJx-77">
          <mxGeometry relative="1" as="geometry">
            <Array as="points">
              <mxPoint x="530" y="240" />
            </Array>
          </mxGeometry>
        </mxCell>
        <mxCell id="tA4RRqH3EDB9mvpufPJx-124" style="edgeStyle=orthogonalEdgeStyle;rounded=0;orthogonalLoop=1;jettySize=auto;html=1;exitX=1;exitY=0.3333333333333333;exitDx=0;exitDy=0;exitPerimeter=0;" edge="1" parent="1" source="tA4RRqH3EDB9mvpufPJx-5" target="tA4RRqH3EDB9mvpufPJx-75">
          <mxGeometry relative="1" as="geometry">
            <Array as="points">
              <mxPoint x="70" y="50" />
              <mxPoint x="570" y="50" />
            </Array>
          </mxGeometry>
        </mxCell>
        <mxCell id="tA4RRqH3EDB9mvpufPJx-125" style="edgeStyle=orthogonalEdgeStyle;rounded=0;orthogonalLoop=1;jettySize=auto;html=1;exitX=0.75;exitY=0.1;exitDx=0;exitDy=0;exitPerimeter=0;" edge="1" parent="1" source="tA4RRqH3EDB9mvpufPJx-5" target="tA4RRqH3EDB9mvpufPJx-81">
          <mxGeometry relative="1" as="geometry">
            <Array as="points">
              <mxPoint x="63" y="-10" />
              <mxPoint x="750" y="-10" />
              <mxPoint x="750" y="190" />
            </Array>
          </mxGeometry>
        </mxCell>
        <mxCell id="tA4RRqH3EDB9mvpufPJx-126" style="edgeStyle=orthogonalEdgeStyle;rounded=0;orthogonalLoop=1;jettySize=auto;html=1;exitX=1;exitY=1;exitDx=0;exitDy=0;exitPerimeter=0;entryX=0;entryY=0.5;entryDx=0;entryDy=0;" edge="1" parent="1" source="tA4RRqH3EDB9mvpufPJx-5" target="tA4RRqH3EDB9mvpufPJx-75">
          <mxGeometry relative="1" as="geometry">
            <Array as="points">
              <mxPoint x="480" y="270" />
            </Array>
          </mxGeometry>
        </mxCell>
        <mxCell id="tA4RRqH3EDB9mvpufPJx-127" style="edgeStyle=orthogonalEdgeStyle;rounded=0;orthogonalLoop=1;jettySize=auto;html=1;exitX=0.5;exitY=0.5;exitDx=0;exitDy=0;exitPerimeter=0;" edge="1" parent="1" source="tA4RRqH3EDB9mvpufPJx-5" target="tA4RRqH3EDB9mvpufPJx-82">
          <mxGeometry relative="1" as="geometry">
            <Array as="points">
              <mxPoint x="55" y="390" />
              <mxPoint x="810" y="390" />
            </Array>
          </mxGeometry>
        </mxCell>
        <mxCell id="tA4RRqH3EDB9mvpufPJx-128" style="edgeStyle=orthogonalEdgeStyle;rounded=0;orthogonalLoop=1;jettySize=auto;html=1;exitX=1;exitY=1;exitDx=0;exitDy=0;exitPerimeter=0;entryX=0.5;entryY=1;entryDx=0;entryDy=0;" edge="1" parent="1" source="tA4RRqH3EDB9mvpufPJx-5" target="tA4RRqH3EDB9mvpufPJx-80">
          <mxGeometry relative="1" as="geometry" />
        </mxCell>
        <mxCell id="tA4RRqH3EDB9mvpufPJx-129" style="edgeStyle=orthogonalEdgeStyle;rounded=0;orthogonalLoop=1;jettySize=auto;html=1;exitX=1;exitY=1;exitDx=0;exitDy=0;exitPerimeter=0;" edge="1" parent="1" source="tA4RRqH3EDB9mvpufPJx-5" target="tA4RRqH3EDB9mvpufPJx-78">
          <mxGeometry relative="1" as="geometry">
            <Array as="points">
              <mxPoint x="100" y="270" />
              <mxPoint x="100" y="420" />
            </Array>
          </mxGeometry>
        </mxCell>
        <mxCell id="tA4RRqH3EDB9mvpufPJx-5" value="STUDENT" style="shape=umlActor;verticalLabelPosition=bottom;verticalAlign=top;html=1;outlineConnect=0;" vertex="1" parent="1">
          <mxGeometry x="40" y="210" width="30" height="60" as="geometry" />
        </mxCell>
        <mxCell id="tA4RRqH3EDB9mvpufPJx-103" style="edgeStyle=orthogonalEdgeStyle;rounded=0;orthogonalLoop=1;jettySize=auto;html=1;exitX=0.5;exitY=0.5;exitDx=0;exitDy=0;exitPerimeter=0;" edge="1" parent="1" source="tA4RRqH3EDB9mvpufPJx-6" target="tA4RRqH3EDB9mvpufPJx-78">
          <mxGeometry relative="1" as="geometry">
            <mxPoint x="160" y="410" as="targetPoint" />
          </mxGeometry>
        </mxCell>
        <mxCell id="tA4RRqH3EDB9mvpufPJx-104" style="edgeStyle=orthogonalEdgeStyle;rounded=0;orthogonalLoop=1;jettySize=auto;html=1;exitX=1;exitY=0.3333333333333333;exitDx=0;exitDy=0;exitPerimeter=0;" edge="1" parent="1" source="tA4RRqH3EDB9mvpufPJx-6" target="tA4RRqH3EDB9mvpufPJx-76">
          <mxGeometry relative="1" as="geometry" />
        </mxCell>
        <mxCell id="tA4RRqH3EDB9mvpufPJx-105" style="edgeStyle=orthogonalEdgeStyle;rounded=0;orthogonalLoop=1;jettySize=auto;html=1;exitX=1;exitY=1;exitDx=0;exitDy=0;exitPerimeter=0;entryX=0.5;entryY=1;entryDx=0;entryDy=0;" edge="1" parent="1" source="tA4RRqH3EDB9mvpufPJx-6" target="tA4RRqH3EDB9mvpufPJx-79">
          <mxGeometry relative="1" as="geometry">
            <mxPoint x="560" y="330" as="targetPoint" />
            <Array as="points">
              <mxPoint x="120" y="510" />
              <mxPoint x="120" y="280" />
              <mxPoint x="320" y="280" />
            </Array>
          </mxGeometry>
        </mxCell>
        <mxCell id="tA4RRqH3EDB9mvpufPJx-117" value="Text" style="edgeLabel;html=1;align=center;verticalAlign=middle;resizable=0;points=[];" vertex="1" connectable="0" parent="tA4RRqH3EDB9mvpufPJx-105">
          <mxGeometry x="0.6549" y="2" relative="1" as="geometry">
            <mxPoint y="-1" as="offset" />
          </mxGeometry>
        </mxCell>
        <mxCell id="tA4RRqH3EDB9mvpufPJx-107" style="edgeStyle=orthogonalEdgeStyle;rounded=0;orthogonalLoop=1;jettySize=auto;html=1;exitX=0.75;exitY=0.1;exitDx=0;exitDy=0;exitPerimeter=0;entryX=0;entryY=0.5;entryDx=0;entryDy=0;" edge="1" parent="1" source="tA4RRqH3EDB9mvpufPJx-6" target="tA4RRqH3EDB9mvpufPJx-82">
          <mxGeometry relative="1" as="geometry">
            <Array as="points">
              <mxPoint x="113" y="510" />
              <mxPoint x="435" y="510" />
              <mxPoint x="435" y="450" />
            </Array>
          </mxGeometry>
        </mxCell>
        <mxCell id="tA4RRqH3EDB9mvpufPJx-6" value="Actor" style="shape=umlActor;verticalLabelPosition=bottom;verticalAlign=top;html=1;outlineConnect=0;" vertex="1" parent="1">
          <mxGeometry x="20" y="450" width="30" height="60" as="geometry" />
        </mxCell>
        <mxCell id="tA4RRqH3EDB9mvpufPJx-77" value="Get Library Opening Hours." style="ellipse;whiteSpace=wrap;html=1;shadow=1;" vertex="1" parent="1">
          <mxGeometry x="530" y="130" width="120" height="80" as="geometry" />
        </mxCell>
        <mxCell id="tA4RRqH3EDB9mvpufPJx-78" value="notifcation" style="ellipse;whiteSpace=wrap;html=1;shadow=1;" vertex="1" parent="1">
          <mxGeometry x="290" y="410" width="120" height="80" as="geometry" />
        </mxCell>
        <mxCell id="tA4RRqH3EDB9mvpufPJx-81" value="Upload Document" style="ellipse;whiteSpace=wrap;html=1;shadow=1;" vertex="1" parent="1">
          <mxGeometry x="760" y="150" width="120" height="80" as="geometry" />
        </mxCell>
        <mxCell id="tA4RRqH3EDB9mvpufPJx-101" value="" style="swimlane;startSize=0;" vertex="1" parent="1">
          <mxGeometry x="200" y="70" width="720" height="470" as="geometry" />
        </mxCell>
        <mxCell id="tA4RRqH3EDB9mvpufPJx-79" value="View Document Status" style="ellipse;whiteSpace=wrap;html=1;shadow=1;" vertex="1" parent="tA4RRqH3EDB9mvpufPJx-101">
          <mxGeometry x="60" y="20" width="120" height="80" as="geometry" />
        </mxCell>
        <mxCell id="tA4RRqH3EDB9mvpufPJx-75" value="login" style="ellipse;whiteSpace=wrap;html=1;shadow=1;" vertex="1" parent="tA4RRqH3EDB9mvpufPJx-101">
          <mxGeometry x="280" y="200" width="120" height="80" as="geometry" />
        </mxCell>
        <mxCell id="tA4RRqH3EDB9mvpufPJx-109" value="" style="endArrow=block;dashed=1;endFill=0;endSize=12;html=1;rounded=0;exitX=1;exitY=1;exitDx=0;exitDy=0;" edge="1" parent="tA4RRqH3EDB9mvpufPJx-101" source="tA4RRqH3EDB9mvpufPJx-79" target="tA4RRqH3EDB9mvpufPJx-75">
          <mxGeometry width="160" relative="1" as="geometry">
            <mxPoint x="130" y="520" as="sourcePoint" />
            <mxPoint x="290" y="520" as="targetPoint" />
          </mxGeometry>
        </mxCell>
        <mxCell id="tA4RRqH3EDB9mvpufPJx-80" value="Make online Payment" style="ellipse;whiteSpace=wrap;html=1;shadow=1;" vertex="1" parent="tA4RRqH3EDB9mvpufPJx-101">
          <mxGeometry x="500" y="200" width="120" height="80" as="geometry" />
        </mxCell>
        <mxCell id="tA4RRqH3EDB9mvpufPJx-116" value="" style="endArrow=block;dashed=1;endFill=0;endSize=12;html=1;rounded=0;exitX=0;exitY=0.5;exitDx=0;exitDy=0;entryX=0.978;entryY=0.268;entryDx=0;entryDy=0;entryPerimeter=0;" edge="1" parent="tA4RRqH3EDB9mvpufPJx-101" source="tA4RRqH3EDB9mvpufPJx-80" target="tA4RRqH3EDB9mvpufPJx-75">
          <mxGeometry width="160" relative="1" as="geometry">
            <mxPoint x="280" y="610" as="sourcePoint" />
            <mxPoint x="410" y="230" as="targetPoint" />
          </mxGeometry>
        </mxCell>
        <mxCell id="tA4RRqH3EDB9mvpufPJx-76" value="print" style="ellipse;whiteSpace=wrap;html=1;shadow=1;" vertex="1" parent="tA4RRqH3EDB9mvpufPJx-101">
          <mxGeometry x="30" y="220" width="120" height="80" as="geometry" />
        </mxCell>
        <mxCell id="tA4RRqH3EDB9mvpufPJx-82" value="cancel request" style="ellipse;whiteSpace=wrap;html=1;shadow=1;" vertex="1" parent="tA4RRqH3EDB9mvpufPJx-101">
          <mxGeometry x="560" y="355" width="120" height="80" as="geometry" />
        </mxCell>
        <mxCell id="tA4RRqH3EDB9mvpufPJx-114" value="" style="endArrow=block;dashed=1;endFill=0;endSize=12;html=1;rounded=0;exitX=0;exitY=1;exitDx=0;exitDy=0;entryX=1;entryY=1;entryDx=0;entryDy=0;" edge="1" parent="tA4RRqH3EDB9mvpufPJx-101" source="tA4RRqH3EDB9mvpufPJx-82" target="tA4RRqH3EDB9mvpufPJx-75">
          <mxGeometry width="160" relative="1" as="geometry">
            <mxPoint x="290" y="600" as="sourcePoint" />
            <mxPoint x="630" y="470" as="targetPoint" />
          </mxGeometry>
        </mxCell>
        <mxCell id="tA4RRqH3EDB9mvpufPJx-113" value="" style="endArrow=block;dashed=1;endFill=0;endSize=12;html=1;rounded=0;exitX=0.5;exitY=0;exitDx=0;exitDy=0;entryX=1;entryY=0.5;entryDx=0;entryDy=0;" edge="1" parent="tA4RRqH3EDB9mvpufPJx-101" source="tA4RRqH3EDB9mvpufPJx-82" target="tA4RRqH3EDB9mvpufPJx-75">
          <mxGeometry width="160" relative="1" as="geometry">
            <mxPoint x="440" y="560" as="sourcePoint" />
            <mxPoint x="600" y="560" as="targetPoint" />
          </mxGeometry>
        </mxCell>
        <mxCell id="tA4RRqH3EDB9mvpufPJx-110" value="" style="endArrow=block;dashed=1;endFill=0;endSize=12;html=1;rounded=0;exitX=1;exitY=1;exitDx=0;exitDy=0;entryX=0.5;entryY=1;entryDx=0;entryDy=0;" edge="1" parent="1" source="tA4RRqH3EDB9mvpufPJx-78" target="tA4RRqH3EDB9mvpufPJx-75">
          <mxGeometry width="160" relative="1" as="geometry">
            <mxPoint x="470" y="600" as="sourcePoint" />
            <mxPoint x="630" y="600" as="targetPoint" />
          </mxGeometry>
        </mxCell>
        <mxCell id="tA4RRqH3EDB9mvpufPJx-111" value="Use" style="endArrow=open;endSize=12;dashed=1;html=1;rounded=0;exitX=0.999;exitY=0.625;exitDx=0;exitDy=0;exitPerimeter=0;entryX=1;entryY=0.5;entryDx=0;entryDy=0;" edge="1" parent="1" source="tA4RRqH3EDB9mvpufPJx-82" target="tA4RRqH3EDB9mvpufPJx-81">
          <mxGeometry width="160" relative="1" as="geometry">
            <mxPoint x="790" y="630" as="sourcePoint" />
            <mxPoint x="970" y="640" as="targetPoint" />
          </mxGeometry>
        </mxCell>
        <mxCell id="tA4RRqH3EDB9mvpufPJx-115" value="" style="endArrow=block;dashed=1;endFill=0;endSize=12;html=1;rounded=0;exitX=0;exitY=0;exitDx=0;exitDy=0;entryX=1;entryY=0;entryDx=0;entryDy=0;" edge="1" parent="1" source="tA4RRqH3EDB9mvpufPJx-81" target="tA4RRqH3EDB9mvpufPJx-75">
          <mxGeometry width="160" relative="1" as="geometry">
            <mxPoint x="390" y="750" as="sourcePoint" />
            <mxPoint x="550" y="750" as="targetPoint" />
          </mxGeometry>
        </mxCell>
        <mxCell id="tA4RRqH3EDB9mvpufPJx-119" value="Use" style="endArrow=open;endSize=12;dashed=1;html=1;rounded=0;exitX=0.5;exitY=0;exitDx=0;exitDy=0;entryX=0.5;entryY=1;entryDx=0;entryDy=0;movable=1;resizable=1;rotatable=1;deletable=1;editable=1;connectable=1;" edge="1" parent="1" source="tA4RRqH3EDB9mvpufPJx-80" target="tA4RRqH3EDB9mvpufPJx-81">
          <mxGeometry x="-0.1724" y="-3" width="160" relative="1" as="geometry">
            <mxPoint x="430" y="669.9999999999998" as="sourcePoint" />
            <mxPoint x="590" y="669.9999999999998" as="targetPoint" />
            <mxPoint y="1" as="offset" />
          </mxGeometry>
        </mxCell>
        <mxCell id="tA4RRqH3EDB9mvpufPJx-130" value="zajel" style="shape=umlActor;verticalLabelPosition=bottom;verticalAlign=top;html=1;outlineConnect=0;" vertex="1" parent="1">
          <mxGeometry x="1010" y="150" width="30" height="60" as="geometry" />
        </mxCell>
        <mxCell id="tA4RRqH3EDB9mvpufPJx-131" value="moodle database" style="shape=umlActor;verticalLabelPosition=bottom;verticalAlign=top;html=1;outlineConnect=0;" vertex="1" parent="1">
          <mxGeometry x="1000" y="450" width="30" height="60" as="geometry" />
        </mxCell>
        <mxCell id="tA4RRqH3EDB9mvpufPJx-138" value="" style="edgeStyle=orthogonalEdgeStyle;rounded=0;orthogonalLoop=1;jettySize=auto;html=1;" edge="1" parent="1" source="tA4RRqH3EDB9mvpufPJx-132" target="tA4RRqH3EDB9mvpufPJx-131">
          <mxGeometry relative="1" as="geometry" />
        </mxCell>
        <mxCell id="tA4RRqH3EDB9mvpufPJx-132" value="Bank system" style="shape=umlActor;verticalLabelPosition=bottom;verticalAlign=top;html=1;outlineConnect=0;" vertex="1" parent="1">
          <mxGeometry x="990" y="290" width="30" height="60" as="geometry" />
        </mxCell>
        <mxCell id="tA4RRqH3EDB9mvpufPJx-133" style="edgeStyle=orthogonalEdgeStyle;rounded=0;orthogonalLoop=1;jettySize=auto;html=1;entryX=0;entryY=0.3333333333333333;entryDx=0;entryDy=0;entryPerimeter=0;" edge="1" parent="1" source="tA4RRqH3EDB9mvpufPJx-75" target="tA4RRqH3EDB9mvpufPJx-130">
          <mxGeometry relative="1" as="geometry">
            <Array as="points">
              <mxPoint x="540" y="30" />
              <mxPoint x="980" y="30" />
            </Array>
          </mxGeometry>
        </mxCell>
        <mxCell id="tA4RRqH3EDB9mvpufPJx-135" style="edgeStyle=orthogonalEdgeStyle;rounded=0;orthogonalLoop=1;jettySize=auto;html=1;exitX=1;exitY=0.5;exitDx=0;exitDy=0;entryX=0;entryY=0.3333333333333333;entryDx=0;entryDy=0;entryPerimeter=0;" edge="1" parent="1" source="tA4RRqH3EDB9mvpufPJx-75" target="tA4RRqH3EDB9mvpufPJx-131">
          <mxGeometry relative="1" as="geometry">
            <Array as="points">
              <mxPoint x="600" y="600" />
              <mxPoint x="980" y="600" />
            </Array>
          </mxGeometry>
        </mxCell>
        <mxCell id="tA4RRqH3EDB9mvpufPJx-139" style="edgeStyle=orthogonalEdgeStyle;rounded=0;orthogonalLoop=1;jettySize=auto;html=1;exitX=1;exitY=0.5;exitDx=0;exitDy=0;entryX=0;entryY=0.3333333333333333;entryDx=0;entryDy=0;entryPerimeter=0;" edge="1" parent="1" source="tA4RRqH3EDB9mvpufPJx-80" target="tA4RRqH3EDB9mvpufPJx-132">
          <mxGeometry relative="1" as="geometry" />
        </mxCell>
      </root>
    </mxGraphModel>
  </diagram>
</mxfile>
